<svg xmlns="http://www.w3.org/2000/svg" viewBox="0 0 56 56" role="img" aria-label="dot matrix">
  <rect width="56" height="56" rx="8" fill="#0f0f0e" />
  <g fill="#f5f5f5">
    <circle cx="6"  cy="6"  r="2.4" opacity="0.18" />
    <circle cx="17" cy="6"  r="2.4" opacity="0.45" />
    <circle cx="28" cy="6"  r="2.4" opacity="0.85" />
    <circle cx="39" cy="6"  r="2.4" opacity="0.45" />
    <circle cx="50" cy="6"  r="2.4" opacity="0.18" />

    <circle cx="6"  cy="17" r="2.4" opacity="0.45" />
    <circle cx="17" cy="17" r="2.4" opacity="0.85" />
    <circle cx="28" cy="17" r="2.4" opacity="1"    />
    <circle cx="39" cy="17" r="2.4" opacity="0.85" />
    <circle cx="50" cy="17" r="2.4" opacity="0.45" />

    <circle cx="6"  cy="28" r="2.4" opacity="0.85" />
    <circle cx="17" cy="28" r="2.4" opacity="1"    />
    <circle cx="28" cy="28" r="3.1" opacity="1"    />
    <circle cx="39" cy="28" r="2.4" opacity="1"    />
    <circle cx="50" cy="28" r="2.4" opacity="0.85" />

    <circle cx="6"  cy="39" r="2.4" opacity="0.45" />
    <circle cx="17" cy="39" r="2.4" opacity="0.85" />
    <circle cx="28" cy="39" r="2.4" opacity="1"    />
    <circle cx="39" cy="39" r="2.4" opacity="0.85" />
    <circle cx="50" cy="39" r="2.4" opacity="0.45" />

    <circle cx="6"  cy="50" r="2.4" opacity="0.18" />
    <circle cx="17" cy="50" r="2.4" opacity="0.45" />
    <circle cx="28" cy="50" r="2.4" opacity="0.85" />
    <circle cx="39" cy="50" r="2.4" opacity="0.45" />
    <circle cx="50" cy="50" r="2.4" opacity="0.18" />
  </g>
</svg>
