<svg xmlns="http://www.w3.org/2000/svg" viewBox="0 0 56 56" role="img" aria-label="Spiral">
  <title>Spiral</title>
  <desc>A bright trace winds outward from the center.</desc>
  <style>
    .bg { fill: #f5f5f5; opacity: 0.07; }
    .lit { fill: #ffffff; opacity: 0; animation: kf 2800ms cubic-bezier(0.25, 1, 0.5, 1) infinite both; }
    @keyframes kf {0%   { opacity: 0; }
4%   { opacity: 1; }
26%  { opacity: 0.08; }
100% { opacity: 0; }}
    @media (prefers-reduced-motion: reduce) { .lit { animation: none; opacity: 0.45; } }
    .d00 { animation-delay: 2221ms; }
    .d01 { animation-delay: 2317ms; }
    .d02 { animation-delay: 869ms; }
    .d03 { animation-delay: 966ms; }
    .d04 { animation-delay: 1062ms; }
    .d10 { animation-delay: 2124ms; }
    .d11 { animation-delay: 772ms; }
    .d12 { animation-delay: 97ms; }
    .d13 { animation-delay: 193ms; }
    .d14 { animation-delay: 1159ms; }
    .d20 { animation-delay: 2028ms; }
    .d21 { animation-delay: 676ms; }
    .d22 { animation-delay: 0ms; }
    .d23 { animation-delay: 290ms; }
    .d24 { animation-delay: 1255ms; }
    .d30 { animation-delay: 1931ms; }
    .d31 { animation-delay: 579ms; }
    .d32 { animation-delay: 483ms; }
    .d33 { animation-delay: 386ms; }
    .d34 { animation-delay: 1352ms; }
    .d40 { animation-delay: 1834ms; }
    .d41 { animation-delay: 1738ms; }
    .d42 { animation-delay: 1641ms; }
    .d43 { animation-delay: 1545ms; }
    .d44 { animation-delay: 1448ms; }
  </style>
  <circle class="bg" cx="6.00" cy="6.00" r="2.4" />
  <circle class="bg" cx="17.00" cy="6.00" r="2.4" />
  <circle class="bg" cx="28.00" cy="6.00" r="2.4" />
  <circle class="bg" cx="39.00" cy="6.00" r="2.4" />
  <circle class="bg" cx="50.00" cy="6.00" r="2.4" />
  <circle class="bg" cx="6.00" cy="17.00" r="2.4" />
  <circle class="bg" cx="17.00" cy="17.00" r="2.4" />
  <circle class="bg" cx="28.00" cy="17.00" r="2.4" />
  <circle class="bg" cx="39.00" cy="17.00" r="2.4" />
  <circle class="bg" cx="50.00" cy="17.00" r="2.4" />
  <circle class="bg" cx="6.00" cy="28.00" r="2.4" />
  <circle class="bg" cx="17.00" cy="28.00" r="2.4" />
  <circle class="bg" cx="28.00" cy="28.00" r="2.4" />
  <circle class="bg" cx="39.00" cy="28.00" r="2.4" />
  <circle class="bg" cx="50.00" cy="28.00" r="2.4" />
  <circle class="bg" cx="6.00" cy="39.00" r="2.4" />
  <circle class="bg" cx="17.00" cy="39.00" r="2.4" />
  <circle class="bg" cx="28.00" cy="39.00" r="2.4" />
  <circle class="bg" cx="39.00" cy="39.00" r="2.4" />
  <circle class="bg" cx="50.00" cy="39.00" r="2.4" />
  <circle class="bg" cx="6.00" cy="50.00" r="2.4" />
  <circle class="bg" cx="17.00" cy="50.00" r="2.4" />
  <circle class="bg" cx="28.00" cy="50.00" r="2.4" />
  <circle class="bg" cx="39.00" cy="50.00" r="2.4" />
  <circle class="bg" cx="50.00" cy="50.00" r="2.4" />
  <circle class="lit d00" cx="6.00" cy="6.00" r="3.1" />
  <circle class="lit d01" cx="17.00" cy="6.00" r="3.1" />
  <circle class="lit d02" cx="28.00" cy="6.00" r="3.1" />
  <circle class="lit d03" cx="39.00" cy="6.00" r="3.1" />
  <circle class="lit d04" cx="50.00" cy="6.00" r="3.1" />
  <circle class="lit d10" cx="6.00" cy="17.00" r="3.1" />
  <circle class="lit d11" cx="17.00" cy="17.00" r="3.1" />
  <circle class="lit d12" cx="28.00" cy="17.00" r="3.1" />
  <circle class="lit d13" cx="39.00" cy="17.00" r="3.1" />
  <circle class="lit d14" cx="50.00" cy="17.00" r="3.1" />
  <circle class="lit d20" cx="6.00" cy="28.00" r="3.1" />
  <circle class="lit d21" cx="17.00" cy="28.00" r="3.1" />
  <circle class="lit d22" cx="28.00" cy="28.00" r="3.1" />
  <circle class="lit d23" cx="39.00" cy="28.00" r="3.1" />
  <circle class="lit d24" cx="50.00" cy="28.00" r="3.1" />
  <circle class="lit d30" cx="6.00" cy="39.00" r="3.1" />
  <circle class="lit d31" cx="17.00" cy="39.00" r="3.1" />
  <circle class="lit d32" cx="28.00" cy="39.00" r="3.1" />
  <circle class="lit d33" cx="39.00" cy="39.00" r="3.1" />
  <circle class="lit d34" cx="50.00" cy="39.00" r="3.1" />
  <circle class="lit d40" cx="6.00" cy="50.00" r="3.1" />
  <circle class="lit d41" cx="17.00" cy="50.00" r="3.1" />
  <circle class="lit d42" cx="28.00" cy="50.00" r="3.1" />
  <circle class="lit d43" cx="39.00" cy="50.00" r="3.1" />
  <circle class="lit d44" cx="50.00" cy="50.00" r="3.1" />
</svg>
