<svg xmlns="http://www.w3.org/2000/svg" viewBox="0 0 56 56" role="img" aria-label="Stream">
  <title>Stream</title>
  <desc>Tokens emit in reading order, top-left to bottom-right.</desc>
  <style>
    .bg { fill: #f5f5f5; opacity: 0.07; }
    .lit { fill: #ffffff; opacity: 0; animation: kf 2400ms cubic-bezier(0.25, 1, 0.5, 1) infinite both; }
    @keyframes kf {0%   { opacity: 0; }
4%   { opacity: 1; }
26%  { opacity: 0.08; }
100% { opacity: 0; }}
    @media (prefers-reduced-motion: reduce) { .lit { animation: none; opacity: 0.45; } }
    .d00 { animation-delay: 0ms; }
    .d01 { animation-delay: 86ms; }
    .d02 { animation-delay: 171ms; }
    .d03 { animation-delay: 257ms; }
    .d04 { animation-delay: 343ms; }
    .d10 { animation-delay: 429ms; }
    .d11 { animation-delay: 514ms; }
    .d12 { animation-delay: 600ms; }
    .d13 { animation-delay: 686ms; }
    .d14 { animation-delay: 771ms; }
    .d20 { animation-delay: 857ms; }
    .d21 { animation-delay: 943ms; }
    .d22 { animation-delay: 1029ms; }
    .d23 { animation-delay: 1114ms; }
    .d24 { animation-delay: 1200ms; }
    .d30 { animation-delay: 1286ms; }
    .d31 { animation-delay: 1371ms; }
    .d32 { animation-delay: 1457ms; }
    .d33 { animation-delay: 1543ms; }
    .d34 { animation-delay: 1629ms; }
    .d40 { animation-delay: 1714ms; }
    .d41 { animation-delay: 1800ms; }
    .d42 { animation-delay: 1886ms; }
    .d43 { animation-delay: 1971ms; }
    .d44 { animation-delay: 2057ms; }
  </style>
  <circle class="bg" cx="6.00" cy="6.00" r="2.4" />
  <circle class="bg" cx="17.00" cy="6.00" r="2.4" />
  <circle class="bg" cx="28.00" cy="6.00" r="2.4" />
  <circle class="bg" cx="39.00" cy="6.00" r="2.4" />
  <circle class="bg" cx="50.00" cy="6.00" r="2.4" />
  <circle class="bg" cx="6.00" cy="17.00" r="2.4" />
  <circle class="bg" cx="17.00" cy="17.00" r="2.4" />
  <circle class="bg" cx="28.00" cy="17.00" r="2.4" />
  <circle class="bg" cx="39.00" cy="17.00" r="2.4" />
  <circle class="bg" cx="50.00" cy="17.00" r="2.4" />
  <circle class="bg" cx="6.00" cy="28.00" r="2.4" />
  <circle class="bg" cx="17.00" cy="28.00" r="2.4" />
  <circle class="bg" cx="28.00" cy="28.00" r="2.4" />
  <circle class="bg" cx="39.00" cy="28.00" r="2.4" />
  <circle class="bg" cx="50.00" cy="28.00" r="2.4" />
  <circle class="bg" cx="6.00" cy="39.00" r="2.4" />
  <circle class="bg" cx="17.00" cy="39.00" r="2.4" />
  <circle class="bg" cx="28.00" cy="39.00" r="2.4" />
  <circle class="bg" cx="39.00" cy="39.00" r="2.4" />
  <circle class="bg" cx="50.00" cy="39.00" r="2.4" />
  <circle class="bg" cx="6.00" cy="50.00" r="2.4" />
  <circle class="bg" cx="17.00" cy="50.00" r="2.4" />
  <circle class="bg" cx="28.00" cy="50.00" r="2.4" />
  <circle class="bg" cx="39.00" cy="50.00" r="2.4" />
  <circle class="bg" cx="50.00" cy="50.00" r="2.4" />
  <circle class="lit d00" cx="6.00" cy="6.00" r="3.1" />
  <circle class="lit d01" cx="17.00" cy="6.00" r="3.1" />
  <circle class="lit d02" cx="28.00" cy="6.00" r="3.1" />
  <circle class="lit d03" cx="39.00" cy="6.00" r="3.1" />
  <circle class="lit d04" cx="50.00" cy="6.00" r="3.1" />
  <circle class="lit d10" cx="6.00" cy="17.00" r="3.1" />
  <circle class="lit d11" cx="17.00" cy="17.00" r="3.1" />
  <circle class="lit d12" cx="28.00" cy="17.00" r="3.1" />
  <circle class="lit d13" cx="39.00" cy="17.00" r="3.1" />
  <circle class="lit d14" cx="50.00" cy="17.00" r="3.1" />
  <circle class="lit d20" cx="6.00" cy="28.00" r="3.1" />
  <circle class="lit d21" cx="17.00" cy="28.00" r="3.1" />
  <circle class="lit d22" cx="28.00" cy="28.00" r="3.1" />
  <circle class="lit d23" cx="39.00" cy="28.00" r="3.1" />
  <circle class="lit d24" cx="50.00" cy="28.00" r="3.1" />
  <circle class="lit d30" cx="6.00" cy="39.00" r="3.1" />
  <circle class="lit d31" cx="17.00" cy="39.00" r="3.1" />
  <circle class="lit d32" cx="28.00" cy="39.00" r="3.1" />
  <circle class="lit d33" cx="39.00" cy="39.00" r="3.1" />
  <circle class="lit d34" cx="50.00" cy="39.00" r="3.1" />
  <circle class="lit d40" cx="6.00" cy="50.00" r="3.1" />
  <circle class="lit d41" cx="17.00" cy="50.00" r="3.1" />
  <circle class="lit d42" cx="28.00" cy="50.00" r="3.1" />
  <circle class="lit d43" cx="39.00" cy="50.00" r="3.1" />
  <circle class="lit d44" cx="50.00" cy="50.00" r="3.1" />
</svg>
