<svg xmlns="http://www.w3.org/2000/svg" width="1200" height="630" viewBox="0 0 1200 630" role="img" aria-label="dot/matrix — Mesh: A row scan and a column scan cross at a moving intersection."><rect width="1200" height="630" fill="#1c1b18"/><line x1="80" y1="72" x2="1120" y2="72" stroke="#2a2925" stroke-width="1"/><text x="80" y="50" fill="#c4c2bb" font-family="ui-monospace, 'SF Mono', Menlo, monospace" font-size="17" font-weight="500" letter-spacing="0.3">dot<tspan fill="#6a6863">/</tspan>matrix</text><text x="1120" y="50" text-anchor="end" fill="#9a9892" font-family="ui-monospace, 'SF Mono', Menlo, monospace" font-size="17" letter-spacing="1">37 / 60  ·  v0.1</text><circle cx="170.71" cy="165.71" r="16.29" fill="#f5f5f3" opacity="0.10"/><circle cx="245.36" cy="165.71" r="16.29" fill="#f5f5f3" opacity="0.10"/><circle cx="320.00" cy="165.71" r="21.04" fill="#f5f5f3" opacity="0.640"/><circle cx="394.64" cy="165.71" r="16.29" fill="#f5f5f3" opacity="0.10"/><circle cx="469.29" cy="165.71" r="16.29" fill="#f5f5f3" opacity="0.10"/><circle cx="170.71" cy="240.36" r="16.29" fill="#f5f5f3" opacity="0.10"/><circle cx="245.36" cy="240.36" r="16.29" fill="#f5f5f3" opacity="0.10"/><circle cx="320.00" cy="240.36" r="21.04" fill="#f5f5f3" opacity="0.550"/><circle cx="394.64" cy="240.36" r="16.29" fill="#f5f5f3" opacity="0.10"/><circle cx="469.29" cy="240.36" r="16.29" fill="#f5f5f3" opacity="0.10"/><circle cx="170.71" cy="315.00" r="21.04" fill="#f5f5f3" opacity="1.000"/><circle cx="245.36" cy="315.00" r="21.04" fill="#f5f5f3" opacity="0.910"/><circle cx="320.00" cy="315.00" r="21.04" fill="#f5f5f3" opacity="0.820"/><circle cx="394.64" cy="315.00" r="21.04" fill="#f5f5f3" opacity="0.730"/><circle cx="469.29" cy="315.00" r="21.04" fill="#f5f5f3" opacity="0.640"/><circle cx="170.71" cy="389.64" r="16.29" fill="#f5f5f3" opacity="0.10"/><circle cx="245.36" cy="389.64" r="16.29" fill="#f5f5f3" opacity="0.10"/><circle cx="320.00" cy="389.64" r="21.04" fill="#f5f5f3" opacity="0.370"/><circle cx="394.64" cy="389.64" r="16.29" fill="#f5f5f3" opacity="0.10"/><circle cx="469.29" cy="389.64" r="16.29" fill="#f5f5f3" opacity="0.10"/><circle cx="170.71" cy="464.29" r="16.29" fill="#f5f5f3" opacity="0.10"/><circle cx="245.36" cy="464.29" r="16.29" fill="#f5f5f3" opacity="0.10"/><circle cx="320.00" cy="464.29" r="21.04" fill="#f5f5f3" opacity="0.280"/><circle cx="394.64" cy="464.29" r="16.29" fill="#f5f5f3" opacity="0.10"/><circle cx="469.29" cy="464.29" r="16.29" fill="#f5f5f3" opacity="0.10"/><text x="600" y="240" fill="#9a9892" font-family="ui-monospace, 'SF Mono', Menlo, monospace" font-size="16" letter-spacing="2.6">SPINNER</text><text x="600" y="318" fill="#f5f5f3" font-family="-apple-system, BlinkMacSystemFont, 'Segoe UI', Helvetica, Arial, system-ui, sans-serif" font-size="76" font-weight="500" letter-spacing="-2">Mesh</text><text x="600" y="380" fill="#c4c2bb" font-family="-apple-system, BlinkMacSystemFont, 'Segoe UI', Helvetica, Arial, system-ui, sans-serif" font-size="28" letter-spacing="-0.3">A row scan and a column scan cross at</text><text x="600" y="418" fill="#c4c2bb" font-family="-apple-system, BlinkMacSystemFont, 'Segoe UI', Helvetica, Arial, system-ui, sans-serif" font-size="28" letter-spacing="-0.3">a moving intersection.</text><text x="600" y="478" fill="#9a9892" font-family="ui-monospace, 'SF Mono', Menlo, monospace" font-size="17" letter-spacing="1">spinner  ·  2400ms</text><line x1="80" y1="558" x2="1120" y2="558" stroke="#2a2925" stroke-width="1"/><text x="80" y="590" fill="#9a9892" font-family="ui-monospace, 'SF Mono', Menlo, monospace" font-size="17" letter-spacing="0.6">dot-matrix-animations.vercel.app/icon/icon-37</text><text x="1120" y="590" text-anchor="end" fill="#9a9892" font-family="ui-monospace, 'SF Mono', Menlo, monospace" font-size="17" letter-spacing="1.2">5×5  ·  ~4 KB  ·  NO JS</text></svg>
