<svg xmlns="http://www.w3.org/2000/svg" width="1200" height="630" viewBox="0 0 1200 630" role="img" aria-label="dot/matrix — Compile: Each column fills bottom-up, then releases as one."><rect width="1200" height="630" fill="#1c1b18"/><line x1="80" y1="72" x2="1120" y2="72" stroke="#2a2925" stroke-width="1"/><text x="80" y="50" fill="#c4c2bb" font-family="ui-monospace, 'SF Mono', Menlo, monospace" font-size="17" font-weight="500" letter-spacing="0.3">dot<tspan fill="#6a6863">/</tspan>matrix</text><text x="1120" y="50" text-anchor="end" fill="#9a9892" font-family="ui-monospace, 'SF Mono', Menlo, monospace" font-size="17" letter-spacing="1">28 / 60  ·  v0.1</text><circle cx="170.71" cy="165.71" r="21.04" fill="#f5f5f3" opacity="0.486"/><circle cx="245.36" cy="165.71" r="21.04" fill="#f5f5f3" opacity="0.434"/><circle cx="320.00" cy="165.71" r="21.04" fill="#f5f5f3" opacity="0.383"/><circle cx="394.64" cy="165.71" r="21.04" fill="#f5f5f3" opacity="0.331"/><circle cx="469.29" cy="165.71" r="21.04" fill="#f5f5f3" opacity="0.280"/><circle cx="170.71" cy="240.36" r="21.04" fill="#f5f5f3" opacity="0.614"/><circle cx="245.36" cy="240.36" r="21.04" fill="#f5f5f3" opacity="0.563"/><circle cx="320.00" cy="240.36" r="21.04" fill="#f5f5f3" opacity="0.511"/><circle cx="394.64" cy="240.36" r="21.04" fill="#f5f5f3" opacity="0.460"/><circle cx="469.29" cy="240.36" r="21.04" fill="#f5f5f3" opacity="0.409"/><circle cx="170.71" cy="315.00" r="21.04" fill="#f5f5f3" opacity="0.743"/><circle cx="245.36" cy="315.00" r="21.04" fill="#f5f5f3" opacity="0.691"/><circle cx="320.00" cy="315.00" r="21.04" fill="#f5f5f3" opacity="0.640"/><circle cx="394.64" cy="315.00" r="21.04" fill="#f5f5f3" opacity="0.589"/><circle cx="469.29" cy="315.00" r="21.04" fill="#f5f5f3" opacity="0.537"/><circle cx="170.71" cy="389.64" r="21.04" fill="#f5f5f3" opacity="0.871"/><circle cx="245.36" cy="389.64" r="21.04" fill="#f5f5f3" opacity="0.820"/><circle cx="320.00" cy="389.64" r="21.04" fill="#f5f5f3" opacity="0.769"/><circle cx="394.64" cy="389.64" r="21.04" fill="#f5f5f3" opacity="0.717"/><circle cx="469.29" cy="389.64" r="21.04" fill="#f5f5f3" opacity="0.666"/><circle cx="170.71" cy="464.29" r="21.04" fill="#f5f5f3" opacity="1.000"/><circle cx="245.36" cy="464.29" r="21.04" fill="#f5f5f3" opacity="0.949"/><circle cx="320.00" cy="464.29" r="21.04" fill="#f5f5f3" opacity="0.897"/><circle cx="394.64" cy="464.29" r="21.04" fill="#f5f5f3" opacity="0.846"/><circle cx="469.29" cy="464.29" r="21.04" fill="#f5f5f3" opacity="0.794"/><text x="600" y="240" fill="#9a9892" font-family="ui-monospace, 'SF Mono', Menlo, monospace" font-size="16" letter-spacing="2.6">PROGRESS</text><text x="600" y="318" fill="#f5f5f3" font-family="-apple-system, BlinkMacSystemFont, 'Segoe UI', Helvetica, Arial, system-ui, sans-serif" font-size="76" font-weight="500" letter-spacing="-2">Compile</text><text x="600" y="380" fill="#c4c2bb" font-family="-apple-system, BlinkMacSystemFont, 'Segoe UI', Helvetica, Arial, system-ui, sans-serif" font-size="28" letter-spacing="-0.3">Each column fills bottom-up, then</text><text x="600" y="418" fill="#c4c2bb" font-family="-apple-system, BlinkMacSystemFont, 'Segoe UI', Helvetica, Arial, system-ui, sans-serif" font-size="28" letter-spacing="-0.3">releases as one.</text><text x="600" y="478" fill="#9a9892" font-family="ui-monospace, 'SF Mono', Menlo, monospace" font-size="17" letter-spacing="1">progress  ·  2400ms</text><line x1="80" y1="558" x2="1120" y2="558" stroke="#2a2925" stroke-width="1"/><text x="80" y="590" fill="#9a9892" font-family="ui-monospace, 'SF Mono', Menlo, monospace" font-size="17" letter-spacing="0.6">dot-matrix-animations.vercel.app/icon/icon-28</text><text x="1120" y="590" text-anchor="end" fill="#9a9892" font-family="ui-monospace, 'SF Mono', Menlo, monospace" font-size="17" letter-spacing="1.2">5×5  ·  ~4 KB  ·  NO JS</text></svg>
