<svg xmlns="http://www.w3.org/2000/svg" width="1200" height="630" viewBox="0 0 1200 630" role="img" aria-label="dot/matrix — Sparkle: Independent dots twinkle on a deterministic loop."><rect width="1200" height="630" fill="#1c1b18"/><line x1="80" y1="72" x2="1120" y2="72" stroke="#2a2925" stroke-width="1"/><text x="80" y="50" fill="#c4c2bb" font-family="ui-monospace, 'SF Mono', Menlo, monospace" font-size="17" font-weight="500" letter-spacing="0.3">dot<tspan fill="#6a6863">/</tspan>matrix</text><text x="1120" y="50" text-anchor="end" fill="#9a9892" font-family="ui-monospace, 'SF Mono', Menlo, monospace" font-size="17" letter-spacing="1">09 / 60  ·  v0.1</text><circle cx="170.71" cy="165.71" r="21.04" fill="#f5f5f3" opacity="1.000"/><circle cx="245.36" cy="165.71" r="21.04" fill="#f5f5f3" opacity="0.347"/><circle cx="320.00" cy="165.71" r="21.04" fill="#f5f5f3" opacity="0.537"/><circle cx="394.64" cy="165.71" r="21.04" fill="#f5f5f3" opacity="0.580"/><circle cx="469.29" cy="165.71" r="21.04" fill="#f5f5f3" opacity="0.991"/><circle cx="170.71" cy="240.36" r="21.04" fill="#f5f5f3" opacity="0.398"/><circle cx="245.36" cy="240.36" r="21.04" fill="#f5f5f3" opacity="0.915"/><circle cx="320.00" cy="240.36" r="21.04" fill="#f5f5f3" opacity="0.655"/><circle cx="394.64" cy="240.36" r="21.04" fill="#f5f5f3" opacity="0.905"/><circle cx="469.29" cy="240.36" r="21.04" fill="#f5f5f3" opacity="0.359"/><circle cx="170.71" cy="315.00" r="21.04" fill="#f5f5f3" opacity="0.448"/><circle cx="245.36" cy="315.00" r="21.04" fill="#f5f5f3" opacity="0.723"/><circle cx="320.00" cy="315.00" r="21.04" fill="#f5f5f3" opacity="0.646"/><circle cx="394.64" cy="315.00" r="21.04" fill="#f5f5f3" opacity="0.713"/><circle cx="469.29" cy="315.00" r="21.04" fill="#f5f5f3" opacity="0.356"/><circle cx="170.71" cy="389.64" r="21.04" fill="#f5f5f3" opacity="0.441"/><circle cx="245.36" cy="389.64" r="21.04" fill="#f5f5f3" opacity="0.280"/><circle cx="320.00" cy="389.64" r="21.04" fill="#f5f5f3" opacity="0.674"/><circle cx="394.64" cy="389.64" r="21.04" fill="#f5f5f3" opacity="0.692"/><circle cx="469.29" cy="389.64" r="21.04" fill="#f5f5f3" opacity="0.610"/><circle cx="170.71" cy="464.29" r="21.04" fill="#f5f5f3" opacity="0.390"/><circle cx="245.36" cy="464.29" r="21.04" fill="#f5f5f3" opacity="0.737"/><circle cx="320.00" cy="464.29" r="21.04" fill="#f5f5f3" opacity="0.636"/><circle cx="394.64" cy="464.29" r="21.04" fill="#f5f5f3" opacity="0.625"/><circle cx="469.29" cy="464.29" r="21.04" fill="#f5f5f3" opacity="0.708"/><text x="600" y="240" fill="#9a9892" font-family="ui-monospace, 'SF Mono', Menlo, monospace" font-size="16" letter-spacing="2.6">AMBIENT</text><text x="600" y="318" fill="#f5f5f3" font-family="-apple-system, BlinkMacSystemFont, 'Segoe UI', Helvetica, Arial, system-ui, sans-serif" font-size="76" font-weight="500" letter-spacing="-2">Sparkle</text><text x="600" y="380" fill="#c4c2bb" font-family="-apple-system, BlinkMacSystemFont, 'Segoe UI', Helvetica, Arial, system-ui, sans-serif" font-size="28" letter-spacing="-0.3">Independent dots twinkle on a</text><text x="600" y="418" fill="#c4c2bb" font-family="-apple-system, BlinkMacSystemFont, 'Segoe UI', Helvetica, Arial, system-ui, sans-serif" font-size="28" letter-spacing="-0.3">deterministic loop.</text><text x="600" y="478" fill="#9a9892" font-family="ui-monospace, 'SF Mono', Menlo, monospace" font-size="17" letter-spacing="1">ambient  ·  2600ms</text><line x1="80" y1="558" x2="1120" y2="558" stroke="#2a2925" stroke-width="1"/><text x="80" y="590" fill="#9a9892" font-family="ui-monospace, 'SF Mono', Menlo, monospace" font-size="17" letter-spacing="0.6">dot-matrix-animations.vercel.app/icon/icon-09</text><text x="1120" y="590" text-anchor="end" fill="#9a9892" font-family="ui-monospace, 'SF Mono', Menlo, monospace" font-size="17" letter-spacing="1.2">5×5  ·  ~4 KB  ·  NO JS</text></svg>
