<svg xmlns="http://www.w3.org/2000/svg" viewBox="0 0 56 56" role="img" aria-label="Beacon">
  <title>Beacon</title>
  <desc>A single center dot pulses while the field stays quiet.</desc>
  <style>
    .bg { fill: #f5f5f5; opacity: 0.07; }
    .lit { fill: #ffffff; opacity: 0; animation: kf 1800ms cubic-bezier(0.16, 1, 0.3, 1) infinite both; }
    @keyframes kf {0%   { opacity: 0.12; }
14%  { opacity: 1; }
40%  { opacity: 0.12; }
100% { opacity: 0.12; }}
    @media (prefers-reduced-motion: reduce) { .lit { animation: none; opacity: 0.45; } }
    .d22 { animation-delay: 0ms; }
  </style>
  <circle class="bg" cx="6.00" cy="6.00" r="2.4" />
  <circle class="bg" cx="17.00" cy="6.00" r="2.4" />
  <circle class="bg" cx="28.00" cy="6.00" r="2.4" />
  <circle class="bg" cx="39.00" cy="6.00" r="2.4" />
  <circle class="bg" cx="50.00" cy="6.00" r="2.4" />
  <circle class="bg" cx="6.00" cy="17.00" r="2.4" />
  <circle class="bg" cx="17.00" cy="17.00" r="2.4" />
  <circle class="bg" cx="28.00" cy="17.00" r="2.4" />
  <circle class="bg" cx="39.00" cy="17.00" r="2.4" />
  <circle class="bg" cx="50.00" cy="17.00" r="2.4" />
  <circle class="bg" cx="6.00" cy="28.00" r="2.4" />
  <circle class="bg" cx="17.00" cy="28.00" r="2.4" />
  <circle class="bg" cx="28.00" cy="28.00" r="2.4" />
  <circle class="bg" cx="39.00" cy="28.00" r="2.4" />
  <circle class="bg" cx="50.00" cy="28.00" r="2.4" />
  <circle class="bg" cx="6.00" cy="39.00" r="2.4" />
  <circle class="bg" cx="17.00" cy="39.00" r="2.4" />
  <circle class="bg" cx="28.00" cy="39.00" r="2.4" />
  <circle class="bg" cx="39.00" cy="39.00" r="2.4" />
  <circle class="bg" cx="50.00" cy="39.00" r="2.4" />
  <circle class="bg" cx="6.00" cy="50.00" r="2.4" />
  <circle class="bg" cx="17.00" cy="50.00" r="2.4" />
  <circle class="bg" cx="28.00" cy="50.00" r="2.4" />
  <circle class="bg" cx="39.00" cy="50.00" r="2.4" />
  <circle class="bg" cx="50.00" cy="50.00" r="2.4" />
  <circle class="lit d22" cx="28.00" cy="28.00" r="3.1" />
</svg>
