<svg xmlns="http://www.w3.org/2000/svg" viewBox="0 0 56 56" role="img" aria-label="Halt">
  <title>Halt</title>
  <desc>A 3×3 square opens, then collapses to a single center dot. One-shot.</desc>
  <style>
    .bg { fill: #f5f5f5; opacity: 0.07; }
    .lit { fill: #ffffff; opacity: 0; animation: kf 1600ms cubic-bezier(0.65, 0, 0.35, 1) 1 both; transform-box: fill-box; transform-origin: center; will-change: opacity, transform; }
    @keyframes kf {0%   { opacity: 0.08; transform: scale(1); }
14%  { opacity: 1; transform: scale(1.08); }
72%  { opacity: 0.95; transform: scale(1); }
100% { opacity: 0.08; transform: scale(1); }}
    @media (prefers-reduced-motion: reduce) { .lit { animation: none; opacity: 0.45; transform: none; } }
    .d11 { animation-delay: 0ms; }
    .d12 { animation-delay: 0ms; }
    .d13 { animation-delay: 0ms; }
    .d21 { animation-delay: 0ms; }
    .d22 { animation-delay: 800ms; }
    .d23 { animation-delay: 0ms; }
    .d31 { animation-delay: 0ms; }
    .d32 { animation-delay: 0ms; }
    .d33 { animation-delay: 0ms; }
  </style>
  <circle class="bg" cx="6.00" cy="6.00" r="2.4" />
  <circle class="bg" cx="17.00" cy="6.00" r="2.4" />
  <circle class="bg" cx="28.00" cy="6.00" r="2.4" />
  <circle class="bg" cx="39.00" cy="6.00" r="2.4" />
  <circle class="bg" cx="50.00" cy="6.00" r="2.4" />
  <circle class="bg" cx="6.00" cy="17.00" r="2.4" />
  <circle class="bg" cx="17.00" cy="17.00" r="2.4" />
  <circle class="bg" cx="28.00" cy="17.00" r="2.4" />
  <circle class="bg" cx="39.00" cy="17.00" r="2.4" />
  <circle class="bg" cx="50.00" cy="17.00" r="2.4" />
  <circle class="bg" cx="6.00" cy="28.00" r="2.4" />
  <circle class="bg" cx="17.00" cy="28.00" r="2.4" />
  <circle class="bg" cx="28.00" cy="28.00" r="2.4" />
  <circle class="bg" cx="39.00" cy="28.00" r="2.4" />
  <circle class="bg" cx="50.00" cy="28.00" r="2.4" />
  <circle class="bg" cx="6.00" cy="39.00" r="2.4" />
  <circle class="bg" cx="17.00" cy="39.00" r="2.4" />
  <circle class="bg" cx="28.00" cy="39.00" r="2.4" />
  <circle class="bg" cx="39.00" cy="39.00" r="2.4" />
  <circle class="bg" cx="50.00" cy="39.00" r="2.4" />
  <circle class="bg" cx="6.00" cy="50.00" r="2.4" />
  <circle class="bg" cx="17.00" cy="50.00" r="2.4" />
  <circle class="bg" cx="28.00" cy="50.00" r="2.4" />
  <circle class="bg" cx="39.00" cy="50.00" r="2.4" />
  <circle class="bg" cx="50.00" cy="50.00" r="2.4" />
  <circle class="lit d11" cx="17.00" cy="17.00" r="3.1" />
  <circle class="lit d12" cx="28.00" cy="17.00" r="3.1" />
  <circle class="lit d13" cx="39.00" cy="17.00" r="3.1" />
  <circle class="lit d21" cx="17.00" cy="28.00" r="3.1" />
  <circle class="lit d22" cx="28.00" cy="28.00" r="3.1" />
  <circle class="lit d23" cx="39.00" cy="28.00" r="3.1" />
  <circle class="lit d31" cx="17.00" cy="39.00" r="3.1" />
  <circle class="lit d32" cx="28.00" cy="39.00" r="3.1" />
  <circle class="lit d33" cx="39.00" cy="39.00" r="3.1" />
</svg>
