<svg xmlns="http://www.w3.org/2000/svg" viewBox="0 0 56 56" role="img" aria-label="Cross Expand">
  <title>Cross Expand</title>
  <desc>A plus shape blooms outward in Manhattan steps.</desc>
  <style>
    .bg { fill: #f5f5f5; opacity: 0.07; }
    .lit { fill: #ffffff; opacity: 0; animation: kf 2200ms cubic-bezier(0.16, 1, 0.3, 1) infinite both; transform-box: fill-box; transform-origin: center; will-change: opacity, transform; }
    @keyframes kf {0%   { opacity: 0; transform: scale(1); }
8%   { opacity: 1; transform: scale(1.18); }
36%  { opacity: 0.05; transform: scale(1); }
100% { opacity: 0; transform: scale(1); }}
    @media (prefers-reduced-motion: reduce) { .lit { animation: none; opacity: 0.45; transform: none; } }
    .d00 { animation-delay: 880ms; }
    .d01 { animation-delay: 660ms; }
    .d02 { animation-delay: 440ms; }
    .d03 { animation-delay: 660ms; }
    .d04 { animation-delay: 880ms; }
    .d10 { animation-delay: 660ms; }
    .d11 { animation-delay: 440ms; }
    .d12 { animation-delay: 220ms; }
    .d13 { animation-delay: 440ms; }
    .d14 { animation-delay: 660ms; }
    .d20 { animation-delay: 440ms; }
    .d21 { animation-delay: 220ms; }
    .d22 { animation-delay: 0ms; }
    .d23 { animation-delay: 220ms; }
    .d24 { animation-delay: 440ms; }
    .d30 { animation-delay: 660ms; }
    .d31 { animation-delay: 440ms; }
    .d32 { animation-delay: 220ms; }
    .d33 { animation-delay: 440ms; }
    .d34 { animation-delay: 660ms; }
    .d40 { animation-delay: 880ms; }
    .d41 { animation-delay: 660ms; }
    .d42 { animation-delay: 440ms; }
    .d43 { animation-delay: 660ms; }
    .d44 { animation-delay: 880ms; }
  </style>
  <circle class="bg" cx="6.00" cy="6.00" r="2.4" />
  <circle class="bg" cx="17.00" cy="6.00" r="2.4" />
  <circle class="bg" cx="28.00" cy="6.00" r="2.4" />
  <circle class="bg" cx="39.00" cy="6.00" r="2.4" />
  <circle class="bg" cx="50.00" cy="6.00" r="2.4" />
  <circle class="bg" cx="6.00" cy="17.00" r="2.4" />
  <circle class="bg" cx="17.00" cy="17.00" r="2.4" />
  <circle class="bg" cx="28.00" cy="17.00" r="2.4" />
  <circle class="bg" cx="39.00" cy="17.00" r="2.4" />
  <circle class="bg" cx="50.00" cy="17.00" r="2.4" />
  <circle class="bg" cx="6.00" cy="28.00" r="2.4" />
  <circle class="bg" cx="17.00" cy="28.00" r="2.4" />
  <circle class="bg" cx="28.00" cy="28.00" r="2.4" />
  <circle class="bg" cx="39.00" cy="28.00" r="2.4" />
  <circle class="bg" cx="50.00" cy="28.00" r="2.4" />
  <circle class="bg" cx="6.00" cy="39.00" r="2.4" />
  <circle class="bg" cx="17.00" cy="39.00" r="2.4" />
  <circle class="bg" cx="28.00" cy="39.00" r="2.4" />
  <circle class="bg" cx="39.00" cy="39.00" r="2.4" />
  <circle class="bg" cx="50.00" cy="39.00" r="2.4" />
  <circle class="bg" cx="6.00" cy="50.00" r="2.4" />
  <circle class="bg" cx="17.00" cy="50.00" r="2.4" />
  <circle class="bg" cx="28.00" cy="50.00" r="2.4" />
  <circle class="bg" cx="39.00" cy="50.00" r="2.4" />
  <circle class="bg" cx="50.00" cy="50.00" r="2.4" />
  <circle class="lit d00" cx="6.00" cy="6.00" r="3.1" />
  <circle class="lit d01" cx="17.00" cy="6.00" r="3.1" />
  <circle class="lit d02" cx="28.00" cy="6.00" r="3.1" />
  <circle class="lit d03" cx="39.00" cy="6.00" r="3.1" />
  <circle class="lit d04" cx="50.00" cy="6.00" r="3.1" />
  <circle class="lit d10" cx="6.00" cy="17.00" r="3.1" />
  <circle class="lit d11" cx="17.00" cy="17.00" r="3.1" />
  <circle class="lit d12" cx="28.00" cy="17.00" r="3.1" />
  <circle class="lit d13" cx="39.00" cy="17.00" r="3.1" />
  <circle class="lit d14" cx="50.00" cy="17.00" r="3.1" />
  <circle class="lit d20" cx="6.00" cy="28.00" r="3.1" />
  <circle class="lit d21" cx="17.00" cy="28.00" r="3.1" />
  <circle class="lit d22" cx="28.00" cy="28.00" r="3.1" />
  <circle class="lit d23" cx="39.00" cy="28.00" r="3.1" />
  <circle class="lit d24" cx="50.00" cy="28.00" r="3.1" />
  <circle class="lit d30" cx="6.00" cy="39.00" r="3.1" />
  <circle class="lit d31" cx="17.00" cy="39.00" r="3.1" />
  <circle class="lit d32" cx="28.00" cy="39.00" r="3.1" />
  <circle class="lit d33" cx="39.00" cy="39.00" r="3.1" />
  <circle class="lit d34" cx="50.00" cy="39.00" r="3.1" />
  <circle class="lit d40" cx="6.00" cy="50.00" r="3.1" />
  <circle class="lit d41" cx="17.00" cy="50.00" r="3.1" />
  <circle class="lit d42" cx="28.00" cy="50.00" r="3.1" />
  <circle class="lit d43" cx="39.00" cy="50.00" r="3.1" />
  <circle class="lit d44" cx="50.00" cy="50.00" r="3.1" />
</svg>
