<svg xmlns="http://www.w3.org/2000/svg" viewBox="0 0 56 56" role="img" aria-label="Roulette">
  <title>Roulette</title>
  <desc>A perimeter sweep decelerates and lands on a final answer.</desc>
  <style>
    .bg { fill: #f5f5f5; opacity: 0.07; }
    .lit { fill: #ffffff; opacity: 0; animation: kf 2600ms linear 1 both; transform-box: fill-box; transform-origin: center; will-change: opacity, transform; }
    @keyframes kf {0%   { opacity: 0; transform: scale(1); }
5%   { opacity: 1; transform: scale(1.20); }
30%  { opacity: 0.05; transform: scale(1); }
80%  { opacity: 0.05; transform: scale(1); }
100% { opacity: 0.6; transform: scale(1); }}
    @media (prefers-reduced-motion: reduce) { .lit { animation: none; opacity: 0.45; transform: none; } }
    .d00 { animation-delay: 0ms; }
    .d01 { animation-delay: 458ms; }
    .d02 { animation-delay: 858ms; }
    .d03 { animation-delay: 1205ms; }
    .d04 { animation-delay: 1503ms; }
    .d10 { animation-delay: 2599ms; }
    .d14 { animation-delay: 1755ms; }
    .d20 { animation-delay: 2595ms; }
    .d24 { animation-delay: 1965ms; }
    .d30 { animation-delay: 2583ms; }
    .d34 { animation-delay: 2137ms; }
    .d40 { animation-delay: 2559ms; }
    .d41 { animation-delay: 2521ms; }
    .d42 { animation-delay: 2463ms; }
    .d43 { animation-delay: 2382ms; }
    .d44 { animation-delay: 2275ms; }
  </style>
  <circle class="bg" cx="6.00" cy="6.00" r="2.4" />
  <circle class="bg" cx="17.00" cy="6.00" r="2.4" />
  <circle class="bg" cx="28.00" cy="6.00" r="2.4" />
  <circle class="bg" cx="39.00" cy="6.00" r="2.4" />
  <circle class="bg" cx="50.00" cy="6.00" r="2.4" />
  <circle class="bg" cx="6.00" cy="17.00" r="2.4" />
  <circle class="bg" cx="17.00" cy="17.00" r="2.4" />
  <circle class="bg" cx="28.00" cy="17.00" r="2.4" />
  <circle class="bg" cx="39.00" cy="17.00" r="2.4" />
  <circle class="bg" cx="50.00" cy="17.00" r="2.4" />
  <circle class="bg" cx="6.00" cy="28.00" r="2.4" />
  <circle class="bg" cx="17.00" cy="28.00" r="2.4" />
  <circle class="bg" cx="28.00" cy="28.00" r="2.4" />
  <circle class="bg" cx="39.00" cy="28.00" r="2.4" />
  <circle class="bg" cx="50.00" cy="28.00" r="2.4" />
  <circle class="bg" cx="6.00" cy="39.00" r="2.4" />
  <circle class="bg" cx="17.00" cy="39.00" r="2.4" />
  <circle class="bg" cx="28.00" cy="39.00" r="2.4" />
  <circle class="bg" cx="39.00" cy="39.00" r="2.4" />
  <circle class="bg" cx="50.00" cy="39.00" r="2.4" />
  <circle class="bg" cx="6.00" cy="50.00" r="2.4" />
  <circle class="bg" cx="17.00" cy="50.00" r="2.4" />
  <circle class="bg" cx="28.00" cy="50.00" r="2.4" />
  <circle class="bg" cx="39.00" cy="50.00" r="2.4" />
  <circle class="bg" cx="50.00" cy="50.00" r="2.4" />
  <circle class="lit d00" cx="6.00" cy="6.00" r="3.1" />
  <circle class="lit d01" cx="17.00" cy="6.00" r="3.1" />
  <circle class="lit d02" cx="28.00" cy="6.00" r="3.1" />
  <circle class="lit d03" cx="39.00" cy="6.00" r="3.1" />
  <circle class="lit d04" cx="50.00" cy="6.00" r="3.1" />
  <circle class="lit d10" cx="6.00" cy="17.00" r="3.1" />
  <circle class="lit d14" cx="50.00" cy="17.00" r="3.1" />
  <circle class="lit d20" cx="6.00" cy="28.00" r="3.1" />
  <circle class="lit d24" cx="50.00" cy="28.00" r="3.1" />
  <circle class="lit d30" cx="6.00" cy="39.00" r="3.1" />
  <circle class="lit d34" cx="50.00" cy="39.00" r="3.1" />
  <circle class="lit d40" cx="6.00" cy="50.00" r="3.1" />
  <circle class="lit d41" cx="17.00" cy="50.00" r="3.1" />
  <circle class="lit d42" cx="28.00" cy="50.00" r="3.1" />
  <circle class="lit d43" cx="39.00" cy="50.00" r="3.1" />
  <circle class="lit d44" cx="50.00" cy="50.00" r="3.1" />
</svg>
