<svg xmlns="http://www.w3.org/2000/svg" viewBox="0 0 56 56" role="img" aria-label="Verify">
  <title>Verify</title>
  <desc>A checkmark traces itself once and stays lit. One-shot.</desc>
  <style>
    .bg { fill: #f5f5f5; opacity: 0.07; }
    .lit { fill: #ffffff; opacity: 0; animation: kf 1400ms cubic-bezier(0.25, 1, 0.5, 1) 1 both; transform-box: fill-box; transform-origin: center; will-change: opacity, transform; }
    @keyframes kf {0%   { opacity: 0; transform: scale(1); }
5%   { opacity: 1; transform: scale(1.20); }
30%  { opacity: 0.05; transform: scale(1); }
80%  { opacity: 0.05; transform: scale(1); }
100% { opacity: 0.6; transform: scale(1); }}
    @media (prefers-reduced-motion: reduce) { .lit { animation: none; opacity: 0.45; transform: none; } }
    .d04 { animation-delay: 1200ms; }
    .d14 { animation-delay: 1000ms; }
    .d20 { animation-delay: 0ms; }
    .d24 { animation-delay: 800ms; }
    .d31 { animation-delay: 200ms; }
    .d33 { animation-delay: 600ms; }
    .d42 { animation-delay: 400ms; }
  </style>
  <circle class="bg" cx="6.00" cy="6.00" r="2.4" />
  <circle class="bg" cx="17.00" cy="6.00" r="2.4" />
  <circle class="bg" cx="28.00" cy="6.00" r="2.4" />
  <circle class="bg" cx="39.00" cy="6.00" r="2.4" />
  <circle class="bg" cx="50.00" cy="6.00" r="2.4" />
  <circle class="bg" cx="6.00" cy="17.00" r="2.4" />
  <circle class="bg" cx="17.00" cy="17.00" r="2.4" />
  <circle class="bg" cx="28.00" cy="17.00" r="2.4" />
  <circle class="bg" cx="39.00" cy="17.00" r="2.4" />
  <circle class="bg" cx="50.00" cy="17.00" r="2.4" />
  <circle class="bg" cx="6.00" cy="28.00" r="2.4" />
  <circle class="bg" cx="17.00" cy="28.00" r="2.4" />
  <circle class="bg" cx="28.00" cy="28.00" r="2.4" />
  <circle class="bg" cx="39.00" cy="28.00" r="2.4" />
  <circle class="bg" cx="50.00" cy="28.00" r="2.4" />
  <circle class="bg" cx="6.00" cy="39.00" r="2.4" />
  <circle class="bg" cx="17.00" cy="39.00" r="2.4" />
  <circle class="bg" cx="28.00" cy="39.00" r="2.4" />
  <circle class="bg" cx="39.00" cy="39.00" r="2.4" />
  <circle class="bg" cx="50.00" cy="39.00" r="2.4" />
  <circle class="bg" cx="6.00" cy="50.00" r="2.4" />
  <circle class="bg" cx="17.00" cy="50.00" r="2.4" />
  <circle class="bg" cx="28.00" cy="50.00" r="2.4" />
  <circle class="bg" cx="39.00" cy="50.00" r="2.4" />
  <circle class="bg" cx="50.00" cy="50.00" r="2.4" />
  <circle class="lit d04" cx="50.00" cy="6.00" r="3.1" />
  <circle class="lit d14" cx="50.00" cy="17.00" r="3.1" />
  <circle class="lit d20" cx="6.00" cy="28.00" r="3.1" />
  <circle class="lit d24" cx="50.00" cy="28.00" r="3.1" />
  <circle class="lit d31" cx="17.00" cy="39.00" r="3.1" />
  <circle class="lit d33" cx="39.00" cy="39.00" r="3.1" />
  <circle class="lit d42" cx="28.00" cy="50.00" r="3.1" />
</svg>
