<svg xmlns="http://www.w3.org/2000/svg" viewBox="0 0 56 56" role="img" aria-label="Sparkle">
  <title>Sparkle</title>
  <desc>Independent dots twinkle on a deterministic loop.</desc>
  <style>
    .bg { fill: #f5f5f5; opacity: 0.07; }
    .lit { fill: #ffffff; opacity: 0; animation: kf 2600ms cubic-bezier(0.65, 0, 0.35, 1) infinite both; }
    @keyframes kf {0%   { opacity: 0.05; }
40%  { opacity: 0.05; }
50%  { opacity: 1; }
60%  { opacity: 0.05; }
100% { opacity: 0.05; }}
    @media (prefers-reduced-motion: reduce) { .lit { animation: none; opacity: 0.45; } }
    .d00 { animation-delay: 0ms; }
    .d01 { animation-delay: 2283ms; }
    .d02 { animation-delay: 1617ms; }
    .d03 { animation-delay: 1466ms; }
    .d04 { animation-delay: 31ms; }
    .d10 { animation-delay: 2106ms; }
    .d11 { animation-delay: 296ms; }
    .d12 { animation-delay: 1206ms; }
    .d13 { animation-delay: 333ms; }
    .d14 { animation-delay: 2241ms; }
    .d20 { animation-delay: 1929ms; }
    .d21 { animation-delay: 967ms; }
    .d22 { animation-delay: 1238ms; }
    .d23 { animation-delay: 1004ms; }
    .d24 { animation-delay: 2252ms; }
    .d30 { animation-delay: 1955ms; }
    .d31 { animation-delay: 2517ms; }
    .d32 { animation-delay: 1139ms; }
    .d33 { animation-delay: 1076ms; }
    .d34 { animation-delay: 1362ms; }
    .d40 { animation-delay: 2132ms; }
    .d41 { animation-delay: 920ms; }
    .d42 { animation-delay: 1274ms; }
    .d43 { animation-delay: 1310ms; }
    .d44 { animation-delay: 1019ms; }
  </style>
  <circle class="bg" cx="6.00" cy="6.00" r="2.4" />
  <circle class="bg" cx="17.00" cy="6.00" r="2.4" />
  <circle class="bg" cx="28.00" cy="6.00" r="2.4" />
  <circle class="bg" cx="39.00" cy="6.00" r="2.4" />
  <circle class="bg" cx="50.00" cy="6.00" r="2.4" />
  <circle class="bg" cx="6.00" cy="17.00" r="2.4" />
  <circle class="bg" cx="17.00" cy="17.00" r="2.4" />
  <circle class="bg" cx="28.00" cy="17.00" r="2.4" />
  <circle class="bg" cx="39.00" cy="17.00" r="2.4" />
  <circle class="bg" cx="50.00" cy="17.00" r="2.4" />
  <circle class="bg" cx="6.00" cy="28.00" r="2.4" />
  <circle class="bg" cx="17.00" cy="28.00" r="2.4" />
  <circle class="bg" cx="28.00" cy="28.00" r="2.4" />
  <circle class="bg" cx="39.00" cy="28.00" r="2.4" />
  <circle class="bg" cx="50.00" cy="28.00" r="2.4" />
  <circle class="bg" cx="6.00" cy="39.00" r="2.4" />
  <circle class="bg" cx="17.00" cy="39.00" r="2.4" />
  <circle class="bg" cx="28.00" cy="39.00" r="2.4" />
  <circle class="bg" cx="39.00" cy="39.00" r="2.4" />
  <circle class="bg" cx="50.00" cy="39.00" r="2.4" />
  <circle class="bg" cx="6.00" cy="50.00" r="2.4" />
  <circle class="bg" cx="17.00" cy="50.00" r="2.4" />
  <circle class="bg" cx="28.00" cy="50.00" r="2.4" />
  <circle class="bg" cx="39.00" cy="50.00" r="2.4" />
  <circle class="bg" cx="50.00" cy="50.00" r="2.4" />
  <circle class="lit d00" cx="6.00" cy="6.00" r="3.1" />
  <circle class="lit d01" cx="17.00" cy="6.00" r="3.1" />
  <circle class="lit d02" cx="28.00" cy="6.00" r="3.1" />
  <circle class="lit d03" cx="39.00" cy="6.00" r="3.1" />
  <circle class="lit d04" cx="50.00" cy="6.00" r="3.1" />
  <circle class="lit d10" cx="6.00" cy="17.00" r="3.1" />
  <circle class="lit d11" cx="17.00" cy="17.00" r="3.1" />
  <circle class="lit d12" cx="28.00" cy="17.00" r="3.1" />
  <circle class="lit d13" cx="39.00" cy="17.00" r="3.1" />
  <circle class="lit d14" cx="50.00" cy="17.00" r="3.1" />
  <circle class="lit d20" cx="6.00" cy="28.00" r="3.1" />
  <circle class="lit d21" cx="17.00" cy="28.00" r="3.1" />
  <circle class="lit d22" cx="28.00" cy="28.00" r="3.1" />
  <circle class="lit d23" cx="39.00" cy="28.00" r="3.1" />
  <circle class="lit d24" cx="50.00" cy="28.00" r="3.1" />
  <circle class="lit d30" cx="6.00" cy="39.00" r="3.1" />
  <circle class="lit d31" cx="17.00" cy="39.00" r="3.1" />
  <circle class="lit d32" cx="28.00" cy="39.00" r="3.1" />
  <circle class="lit d33" cx="39.00" cy="39.00" r="3.1" />
  <circle class="lit d34" cx="50.00" cy="39.00" r="3.1" />
  <circle class="lit d40" cx="6.00" cy="50.00" r="3.1" />
  <circle class="lit d41" cx="17.00" cy="50.00" r="3.1" />
  <circle class="lit d42" cx="28.00" cy="50.00" r="3.1" />
  <circle class="lit d43" cx="39.00" cy="50.00" r="3.1" />
  <circle class="lit d44" cx="50.00" cy="50.00" r="3.1" />
</svg>
